# MagicaVoxel @ Ephtracy

# group
o 

# material
mtllib ShipBay(Black)-1.mtl
usemtl palette

# normals
vn -1 0 0
vn 1 0 0
vn 0 0 1
vn 0 0 -1
vn 0 -1 0
vn 0 1 0

# texcoords
vt 0.755859 0.5
vt 0.919922 0.5
vt 0.923828 0.5
vt 0.962891 0.5
vt 0.994141 0.5

# verts
v -4 -0.3 4
v -4 -0.3 -4
v -4 7.7 4
v -4 7.7 -4
v -2.5 -0.2 1.4
v -2.5 -0.2 -3
v -2.5 0 1.4
v -2.5 0 -3
v -2.4 0 1.3
v -2.4 0 -2.9
v -2.4 0.1 -2.8
v -2.4 0.1 -2.9
v -2.4 0.2 1.3
v -2.4 0.2 -2.8
v -2.2 -0.2 1.6
v -2.2 -0.2 1.4
v -2.2 0 1.4
v -2.2 0 1.3
v -2.2 0.2 1.3
v -2.2 0.5 1.6
v -2.2 0.5 1.5
v -2.2 0.8 1.5
v -2.2 0.8 1.3
v -1.9 0.7 1.5
v -1.9 0.7 1.4
v -1.9 0.8 1.5
v -1.9 0.8 1.4
v -1 0.2 0.2
v -1 0.2 -0.2
v -1 0.2 -1.4
v -1 0.2 -1.8
v -1 0.3 0.2
v -1 0.3 -0.2
v -1 0.3 -1.4
v -1 0.3 -1.8
v -0.7 0.1 0.0999999
v -0.7 0.1 -0.1
v -0.7 0.1 -1.5
v -0.7 0.1 -1.7
v -0.7 0.2 0.0999999
v -0.7 0.2 -0.1
v -0.7 0.2 -1.5
v -0.7 0.2 -1.7
v -0.7 0.3 0.0999999
v -0.7 0.3 -0.1
v -0.7 0.3 -1.5
v -0.7 0.3 -1.7
v -0.6 0.2 -0.2
v -0.6 0.2 -0.4
v -0.6 0.2 -1.2
v -0.6 0.2 -1.4
v -0.6 0.3 -0.2
v -0.6 0.3 -0.4
v -0.6 0.3 -1.2
v -0.6 0.3 -1.4
v -0.5 0.2 -0.4
v -0.5 0.2 -1.2
v -0.5 0.3 -0.3
v -0.5 0.3 -0.4
v -0.5 0.3 -0.5
v -0.5 0.3 -1.1
v -0.5 0.3 -1.2
v -0.5 0.3 -1.3
v -0.5 0.4 -0.3
v -0.5 0.4 -0.5
v -0.5 0.4 -1.1
v -0.5 0.4 -1.3
v 0.3 0.1 -0.4
v 0.3 0.1 -0.5
v 0.3 0.1 -1.1
v 0.3 0.1 -1.2
v 0.3 0.3 -0.3
v 0.3 0.3 -0.4
v 0.3 0.3 -1.2
v 0.3 0.3 -1.3
v 0.3 0.4 -0.3
v 0.3 0.4 -0.5
v 0.3 0.4 -1.1
v 0.3 0.4 -1.3
v 0.4 0.1 -0.5
v 0.4 0.1 -1.1
v 0.4 0.2 -0.2
v 0.4 0.2 -0.3
v 0.4 0.2 -1.3
v 0.4 0.2 -1.4
v 0.4 0.3 -0.2
v 0.4 0.3 -0.3
v 0.4 0.3 -0.5
v 0.4 0.3 -1.1
v 0.4 0.3 -1.3
v 0.4 0.3 -1.4
v 0.6 0.2 0.2
v 0.6 0.2 -0.2
v 0.6 0.2 -1.4
v 0.6 0.2 -1.8
v 0.6 0.3 0.2
v 0.6 0.3 -0.2
v 0.6 0.3 -1.4
v 0.6 0.3 -1.8
v 0.9 0.1 0.0999999
v 0.9 0.1 -0.1
v 0.9 0.1 -1.5
v 0.9 0.1 -1.7
v 0.9 0.2 0.0999999
v 0.9 0.2 -0.1
v 0.9 0.2 -1.5
v 0.9 0.2 -1.7
v 0.9 0.3 0.0999999
v 0.9 0.3 -0.1
v 0.9 0.3 -1.5
v 0.9 0.3 -1.7
v 3.9 -0.2 4
v 3.9 -0.2 -3.9
v 3.9 7.6 4
v 3.9 7.6 -3.9
v -3.9 -0.2 4
v -3.9 -0.2 0.5
v -3.9 -0.2 0.3
v -3.9 -0.2 -2.2
v -3.9 -0.2 -2.4
v -3.9 -0.2 -3.9
v -3.9 2.3 0.3
v -3.9 2.3 -2.2
v -3.9 2.5 0.5
v -3.9 2.5 -2.4
v -3.9 7.6 4
v -3.9 7.6 -3.9
v -3.8 -0.2 0.5
v -3.8 -0.2 0.3
v -3.8 -0.2 -2.2
v -3.8 -0.2 -2.4
v -3.8 2.3 0.3
v -3.8 2.3 -2.2
v -3.8 2.5 0.5
v -3.8 2.5 -2.4
v -2.1 0.7 1.5
v -2.1 0.7 1.4
v -2.1 0.8 1.5
v -2.1 0.8 1.4
v -1.8 -0.2 1.6
v -1.8 -0.2 1.4
v -1.8 0 1.4
v -1.8 0 1.3
v -1.8 0.2 1.3
v -1.8 0.5 1.6
v -1.8 0.5 1.5
v -1.8 0.8 1.5
v -1.8 0.8 1.3
v -0.9 0.1 0.0999999
v -0.9 0.1 -0.1
v -0.9 0.1 -1.5
v -0.9 0.1 -1.7
v -0.9 0.2 0.0999999
v -0.9 0.2 -0.1
v -0.9 0.2 -1.5
v -0.9 0.2 -1.7
v -0.9 0.3 0.0999999
v -0.9 0.3 -0.1
v -0.9 0.3 -1.5
v -0.9 0.3 -1.7
v -0.6 0.2 0.2
v -0.6 0.2 -0.2
v -0.6 0.2 -1.4
v -0.6 0.2 -1.8
v -0.6 0.3 0.2
v -0.6 0.3 -0.2
v -0.6 0.3 -1.4
v -0.6 0.3 -1.8
v -0.4 0.1 -0.5
v -0.4 0.1 -1.1
v -0.4 0.2 -0.2
v -0.4 0.2 -0.3
v -0.4 0.2 -1.3
v -0.4 0.2 -1.4
v -0.4 0.3 -0.2
v -0.4 0.3 -0.3
v -0.4 0.3 -0.5
v -0.4 0.3 -1.1
v -0.4 0.3 -1.3
v -0.4 0.3 -1.4
v -0.3 0.1 -0.4
v -0.3 0.1 -0.5
v -0.3 0.1 -1.1
v -0.3 0.1 -1.2
v -0.3 0.3 -0.3
v -0.3 0.3 -0.4
v -0.3 0.3 -1.2
v -0.3 0.3 -1.3
v -0.3 0.4 -0.3
v -0.3 0.4 -0.5
v -0.3 0.4 -1.1
v -0.3 0.4 -1.3
v 0.5 0.2 -0.4
v 0.5 0.2 -1.2
v 0.5 0.3 -0.3
v 0.5 0.3 -0.4
v 0.5 0.3 -0.5
v 0.5 0.3 -1.1
v 0.5 0.3 -1.2
v 0.5 0.3 -1.3
v 0.5 0.4 -0.3
v 0.5 0.4 -0.5
v 0.5 0.4 -1.1
v 0.5 0.4 -1.3
v 0.6 0.2 -0.2
v 0.6 0.2 -0.4
v 0.6 0.2 -1.2
v 0.6 0.2 -1.4
v 0.6 0.3 -0.2
v 0.6 0.3 -0.4
v 0.6 0.3 -1.2
v 0.6 0.3 -1.4
v 0.7 0.1 0.0999999
v 0.7 0.1 -0.1
v 0.7 0.1 -1.5
v 0.7 0.1 -1.7
v 0.7 0.2 0.0999999
v 0.7 0.2 -0.1
v 0.7 0.2 -1.5
v 0.7 0.2 -1.7
v 0.7 0.3 0.0999999
v 0.7 0.3 -0.1
v 0.7 0.3 -1.5
v 0.7 0.3 -1.7
v 1 0.2 0.2
v 1 0.2 -0.2
v 1 0.2 -1.4
v 1 0.2 -1.8
v 1 0.3 0.2
v 1 0.3 -0.2
v 1 0.3 -1.4
v 1 0.3 -1.8
v 2.4 0 1.3
v 2.4 0 -2.9
v 2.4 0.1 -2.8
v 2.4 0.1 -2.9
v 2.4 0.2 1.3
v 2.4 0.2 -2.8
v 2.5 -0.2 1.4
v 2.5 -0.2 -3
v 2.5 0 1.4
v 2.5 0 -3
v 4 -0.3 4
v 4 -0.3 -4
v 4 7.7 4
v 4 7.7 -4
v -4 -0.3 4
v -4 7.7 4
v -3.9 -0.2 4
v -3.9 7.6 4
v -3.9 7.7 4
v 3.9 -0.2 4
v 3.9 7.6 4
v 3.9 7.7 4
v 4 -0.3 4
v 4 7.7 4
v -2.2 -0.2 1.6
v -2.2 0.5 1.6
v -1.8 -0.2 1.6
v -1.8 0.5 1.6
v -2.2 0.5 1.5
v -2.2 0.8 1.5
v -2.1 0.7 1.5
v -2.1 0.8 1.5
v -1.9 0.7 1.5
v -1.9 0.8 1.5
v -1.8 0.5 1.5
v -1.8 0.8 1.5
v -2.5 -0.2 1.4
v -2.5 0 1.4
v -2.2 -0.2 1.4
v -2.2 0 1.4
v -2.1 0.7 1.4
v -2.1 0.8 1.4
v -1.9 0.7 1.4
v -1.9 0.8 1.4
v -1.8 -0.2 1.4
v -1.8 0 1.4
v 2.5 -0.2 1.4
v 2.5 0 1.4
v -2.4 0 1.3
v -2.4 0.2 1.3
v -2.2 0 1.3
v -2.2 0.2 1.3
v -1.8 0 1.3
v -1.8 0.2 1.3
v 2.4 0 1.3
v 2.4 0.2 1.3
v -3.9 -0.2 0.5
v -3.9 2.5 0.5
v -3.8 -0.2 0.5
v -3.8 2.5 0.5
v -1 0.2 0.2
v -1 0.3 0.2
v -0.6 0.2 0.2
v -0.6 0.3 0.2
v 0.6 0.2 0.2
v 0.6 0.3 0.2
v 1 0.2 0.2
v 1 0.3 0.2
v -0.9 0.1 -0.1
v -0.9 0.2 -0.1
v -0.9 0.3 -0.1
v -0.7 0.1 -0.1
v -0.7 0.2 -0.1
v -0.7 0.3 -0.1
v 0.7 0.1 -0.1
v 0.7 0.2 -0.1
v 0.7 0.3 -0.1
v 0.9 0.1 -0.1
v 0.9 0.2 -0.1
v 0.9 0.3 -0.1
v -0.6 0.2 -0.2
v -0.6 0.3 -0.2
v -0.4 0.2 -0.2
v -0.4 0.3 -0.2
v 0.4 0.2 -0.2
v 0.4 0.3 -0.2
v 0.6 0.2 -0.2
v 0.6 0.3 -0.2
v -0.5 0.3 -0.3
v -0.5 0.4 -0.3
v -0.4 0.2 -0.3
v -0.4 0.3 -0.3
v -0.3 0.3 -0.3
v -0.3 0.4 -0.3
v 0.3 0.3 -0.3
v 0.3 0.4 -0.3
v 0.4 0.2 -0.3
v 0.4 0.3 -0.3
v 0.5 0.3 -0.3
v 0.5 0.4 -0.3
v -0.5 0.3 -1.1
v -0.5 0.4 -1.1
v -0.4 0.1 -1.1
v -0.4 0.3 -1.1
v -0.3 0.1 -1.1
v -0.3 0.4 -1.1
v 0.3 0.1 -1.1
v 0.3 0.4 -1.1
v 0.4 0.1 -1.1
v 0.4 0.3 -1.1
v 0.5 0.3 -1.1
v 0.5 0.4 -1.1
v -0.6 0.2 -1.2
v -0.6 0.3 -1.2
v -0.5 0.2 -1.2
v -0.5 0.3 -1.2
v -0.3 0.1 -1.2
v -0.3 0.3 -1.2
v 0.3 0.1 -1.2
v 0.3 0.3 -1.2
v 0.5 0.2 -1.2
v 0.5 0.3 -1.2
v 0.6 0.2 -1.2
v 0.6 0.3 -1.2
v -1 0.2 -1.4
v -1 0.3 -1.4
v -0.6 0.2 -1.4
v -0.6 0.3 -1.4
v 0.6 0.2 -1.4
v 0.6 0.3 -1.4
v 1 0.2 -1.4
v 1 0.3 -1.4
v -0.9 0.1 -1.7
v -0.9 0.2 -1.7
v -0.9 0.3 -1.7
v -0.7 0.1 -1.7
v -0.7 0.2 -1.7
v -0.7 0.3 -1.7
v 0.7 0.1 -1.7
v 0.7 0.2 -1.7
v 0.7 0.3 -1.7
v 0.9 0.1 -1.7
v 0.9 0.2 -1.7
v 0.9 0.3 -1.7
v -3.9 -0.2 -2.2
v -3.9 2.3 -2.2
v -3.8 -0.2 -2.2
v -3.8 2.3 -2.2
v -3.9 -0.2 -3.9
v -3.9 7.6 -3.9
v 3.9 -0.2 -3.9
v 3.9 7.6 -3.9
v -2.2 0.2 1.3
v -2.2 0.8 1.3
v -1.8 0.2 1.3
v -1.8 0.8 1.3
v -3.9 -0.2 0.3
v -3.9 2.3 0.3
v -3.8 -0.2 0.3
v -3.8 2.3 0.3
v -0.9 0.1 0.0999999
v -0.9 0.2 0.0999999
v -0.9 0.3 0.0999999
v -0.7 0.1 0.0999999
v -0.7 0.2 0.0999999
v -0.7 0.3 0.0999999
v 0.7 0.1 0.0999999
v 0.7 0.2 0.0999999
v 0.7 0.3 0.0999999
v 0.9 0.1 0.0999999
v 0.9 0.2 0.0999999
v 0.9 0.3 0.0999999
v -1 0.2 -0.2
v -1 0.3 -0.2
v -0.6 0.2 -0.2
v -0.6 0.3 -0.2
v 0.6 0.2 -0.2
v 0.6 0.3 -0.2
v 1 0.2 -0.2
v 1 0.3 -0.2
v -0.6 0.2 -0.4
v -0.6 0.3 -0.4
v -0.5 0.2 -0.4
v -0.5 0.3 -0.4
v -0.3 0.1 -0.4
v -0.3 0.3 -0.4
v 0.3 0.1 -0.4
v 0.3 0.3 -0.4
v 0.5 0.2 -0.4
v 0.5 0.3 -0.4
v 0.6 0.2 -0.4
v 0.6 0.3 -0.4
v -0.5 0.3 -0.5
v -0.5 0.4 -0.5
v -0.4 0.1 -0.5
v -0.4 0.3 -0.5
v -0.3 0.1 -0.5
v -0.3 0.4 -0.5
v 0.3 0.1 -0.5
v 0.3 0.4 -0.5
v 0.4 0.1 -0.5
v 0.4 0.3 -0.5
v 0.5 0.3 -0.5
v 0.5 0.4 -0.5
v -0.5 0.3 -1.3
v -0.5 0.4 -1.3
v -0.4 0.2 -1.3
v -0.4 0.3 -1.3
v -0.3 0.3 -1.3
v -0.3 0.4 -1.3
v 0.3 0.3 -1.3
v 0.3 0.4 -1.3
v 0.4 0.2 -1.3
v 0.4 0.3 -1.3
v 0.5 0.3 -1.3
v 0.5 0.4 -1.3
v -0.6 0.2 -1.4
v -0.6 0.3 -1.4
v -0.4 0.2 -1.4
v -0.4 0.3 -1.4
v 0.4 0.2 -1.4
v 0.4 0.3 -1.4
v 0.6 0.2 -1.4
v 0.6 0.3 -1.4
v -0.9 0.1 -1.5
v -0.9 0.2 -1.5
v -0.9 0.3 -1.5
v -0.7 0.1 -1.5
v -0.7 0.2 -1.5
v -0.7 0.3 -1.5
v 0.7 0.1 -1.5
v 0.7 0.2 -1.5
v 0.7 0.3 -1.5
v 0.9 0.1 -1.5
v 0.9 0.2 -1.5
v 0.9 0.3 -1.5
v -1 0.2 -1.8
v -1 0.3 -1.8
v -0.6 0.2 -1.8
v -0.6 0.3 -1.8
v 0.6 0.2 -1.8
v 0.6 0.3 -1.8
v 1 0.2 -1.8
v 1 0.3 -1.8
v -3.9 -0.2 -2.4
v -3.9 2.5 -2.4
v -3.8 -0.2 -2.4
v -3.8 2.5 -2.4
v -2.4 0.1 -2.8
v -2.4 0.2 -2.8
v 2.4 0.1 -2.8
v 2.4 0.2 -2.8
v -2.4 0 -2.9
v -2.4 0.1 -2.9
v 2.4 0 -2.9
v 2.4 0.1 -2.9
v -2.5 -0.2 -3
v -2.5 0 -3
v 2.5 -0.2 -3
v 2.5 0 -3
v -4 -0.3 -4
v -4 7.7 -4
v -3.9 7.6 -4
v -3.9 7.7 -4
v 3.9 7.6 -4
v 3.9 7.7 -4
v 4 -0.3 -4
v 4 7.7 -4
v -4 -0.3 4
v 4 -0.3 4
v -2.5 -0.3 1.4
v 2.5 -0.3 1.4
v -2.5 -0.3 -3
v 2.5 -0.3 -3
v -4 -0.3 -4
v 4 -0.3 -4
v -3.9 2.3 0.3
v -3.8 2.3 0.3
v -3.9 2.3 -2.2
v -3.8 2.3 -2.2
v -3.9 7.6 4
v 3.9 7.6 4
v -3.9 7.6 -3.9
v 3.9 7.6 -3.9
v -3.9 -0.2 4
v 3.9 -0.2 4
v -2.2 -0.2 1.6
v -1.8 -0.2 1.6
v -2.5 -0.2 1.4
v -2.2 -0.2 1.4
v -1.8 -0.2 1.4
v 2.5 -0.2 1.4
v -3.9 -0.2 0.5
v -3.8 -0.2 0.5
v -3.9 -0.2 0.3
v -3.8 -0.2 0.3
v -3.9 -0.2 -2.2
v -3.8 -0.2 -2.2
v -3.9 -0.2 -2.4
v -3.8 -0.2 -2.4
v -2.5 -0.2 -3
v 2.5 -0.2 -3
v -3.9 -0.2 -3.9
v 3.9 -0.2 -3.9
v -2.5 0 1.4
v -2.2 0 1.4
v -1.8 0 1.4
v 2.5 0 1.4
v -2.4 0 1.3
v -2.2 0 1.3
v -1.8 0 1.3
v 2.4 0 1.3
v -2.4 0 -2.9
v 2.4 0 -2.9
v -2.5 0 -3
v 2.5 0 -3
v -0.9 0.1 0.0999999
v -0.7 0.1 0.0999999
v 0.7 0.1 0.0999999
v 0.9 0.1 0.0999999
v -0.9 0.1 -0.1
v -0.7 0.1 -0.1
v 0.7 0.1 -0.1
v 0.9 0.1 -0.1
v -0.3 0.1 -0.4
v 0.3 0.1 -0.4
v -0.4 0.1 -0.5
v -0.3 0.1 -0.5
v 0.3 0.1 -0.5
v 0.4 0.1 -0.5
v -0.4 0.1 -1.1
v -0.3 0.1 -1.1
v 0.3 0.1 -1.1
v 0.4 0.1 -1.1
v -0.3 0.1 -1.2
v 0.3 0.1 -1.2
v -0.9 0.1 -1.5
v -0.7 0.1 -1.5
v 0.7 0.1 -1.5
v 0.9 0.1 -1.5
v -0.9 0.1 -1.7
v -0.7 0.1 -1.7
v 0.7 0.1 -1.7
v 0.9 0.1 -1.7
v -2.4 0.1 -2.8
v 2.4 0.1 -2.8
v -2.4 0.1 -2.9
v 2.4 0.1 -2.9
v -2.4 0.2 1.3
v -2.2 0.2 1.3
v -1.8 0.2 1.3
v 2.4 0.2 1.3
v -1 0.2 0.2
v -0.6 0.2 0.2
v 0.6 0.2 0.2
v 1 0.2 0.2
v -1 0.2 -0.2
v -0.6 0.2 -0.2
v -0.4 0.2 -0.2
v 0.4 0.2 -0.2
v 0.6 0.2 -0.2
v 1 0.2 -0.2
v -0.4 0.2 -0.3
v 0.4 0.2 -0.3
v -0.6 0.2 -0.4
v -0.5 0.2 -0.4
v 0.5 0.2 -0.4
v 0.6 0.2 -0.4
v -0.6 0.2 -1.2
v -0.5 0.2 -1.2
v 0.5 0.2 -1.2
v 0.6 0.2 -1.2
v -0.4 0.2 -1.3
v 0.4 0.2 -1.3
v -1 0.2 -1.4
v -0.6 0.2 -1.4
v -0.4 0.2 -1.4
v 0.4 0.2 -1.4
v 0.6 0.2 -1.4
v 1 0.2 -1.4
v -1 0.2 -1.8
v -0.6 0.2 -1.8
v 0.6 0.2 -1.8
v 1 0.2 -1.8
v -2.4 0.2 -2.8
v 2.4 0.2 -2.8
v -1 0.3 0.2
v -0.6 0.3 0.2
v 0.6 0.3 0.2
v 1 0.3 0.2
v -0.9 0.3 0.0999999
v -0.7 0.3 0.0999999
v 0.7 0.3 0.0999999
v 0.9 0.3 0.0999999
v -0.9 0.3 -0.1
v -0.7 0.3 -0.1
v 0.7 0.3 -0.1
v 0.9 0.3 -0.1
v -1 0.3 -0.2
v -0.6 0.3 -0.2
v -0.4 0.3 -0.2
v 0.4 0.3 -0.2
v 0.6 0.3 -0.2
v 1 0.3 -0.2
v -0.5 0.3 -0.3
v -0.4 0.3 -0.3
v -0.3 0.3 -0.3
v 0.3 0.3 -0.3
v 0.4 0.3 -0.3
v 0.5 0.3 -0.3
v -0.6 0.3 -0.4
v -0.5 0.3 -0.4
v -0.3 0.3 -0.4
v 0.3 0.3 -0.4
v 0.5 0.3 -0.4
v 0.6 0.3 -0.4
v -0.5 0.3 -0.5
v -0.4 0.3 -0.5
v 0.4 0.3 -0.5
v 0.5 0.3 -0.5
v -0.5 0.3 -1.1
v -0.4 0.3 -1.1
v 0.4 0.3 -1.1
v 0.5 0.3 -1.1
v -0.6 0.3 -1.2
v -0.5 0.3 -1.2
v -0.3 0.3 -1.2
v 0.3 0.3 -1.2
v 0.5 0.3 -1.2
v 0.6 0.3 -1.2
v -0.5 0.3 -1.3
v -0.4 0.3 -1.3
v -0.3 0.3 -1.3
v 0.3 0.3 -1.3
v 0.4 0.3 -1.3
v 0.5 0.3 -1.3
v -1 0.3 -1.4
v -0.6 0.3 -1.4
v -0.4 0.3 -1.4
v 0.4 0.3 -1.4
v 0.6 0.3 -1.4
v 1 0.3 -1.4
v -0.9 0.3 -1.5
v -0.7 0.3 -1.5
v 0.7 0.3 -1.5
v 0.9 0.3 -1.5
v -0.9 0.3 -1.7
v -0.7 0.3 -1.7
v 0.7 0.3 -1.7
v 0.9 0.3 -1.7
v -1 0.3 -1.8
v -0.6 0.3 -1.8
v 0.6 0.3 -1.8
v 1 0.3 -1.8
v -0.5 0.4 -0.3
v -0.3 0.4 -0.3
v 0.3 0.4 -0.3
v 0.5 0.4 -0.3
v -0.5 0.4 -0.5
v -0.3 0.4 -0.5
v 0.3 0.4 -0.5
v 0.5 0.4 -0.5
v -0.5 0.4 -1.1
v -0.3 0.4 -1.1
v 0.3 0.4 -1.1
v 0.5 0.4 -1.1
v -0.5 0.4 -1.3
v -0.3 0.4 -1.3
v 0.3 0.4 -1.3
v 0.5 0.4 -1.3
v -2.2 0.5 1.6
v -1.8 0.5 1.6
v -2.2 0.5 1.5
v -1.8 0.5 1.5
v -2.1 0.7 1.5
v -1.9 0.7 1.5
v -2.1 0.7 1.4
v -1.9 0.7 1.4
v -2.2 0.8 1.5
v -2.1 0.8 1.5
v -1.9 0.8 1.5
v -1.8 0.8 1.5
v -2.1 0.8 1.4
v -1.9 0.8 1.4
v -2.2 0.8 1.3
v -1.8 0.8 1.3
v -3.9 2.5 0.5
v -3.8 2.5 0.5
v -3.9 2.5 -2.4
v -3.8 2.5 -2.4
v -4 7.7 4
v -3.9 7.7 4
v 3.9 7.7 4
v 4 7.7 4
v -3.9 7.7 -3.9
v 3.9 7.7 -3.9
v -4 7.7 -4
v -3.9 7.7 -4
v 3.9 7.7 -4
v 4 7.7 -4

# faces
f 3/5/1 2/5/1 1/5/1
f 4/5/1 2/5/1 3/5/1
f 7/5/1 6/5/1 5/5/1
f 8/5/1 6/5/1 7/5/1
f 11/5/1 10/5/1 9/5/1
f 12/5/1 10/5/1 11/5/1
f 13/5/1 11/5/1 9/5/1
f 14/5/1 11/5/1 13/5/1
f 17/5/1 16/5/1 15/5/1
f 19/5/1 18/5/1 17/5/1
f 20/5/1 17/5/1 15/5/1
f 20/5/1 19/5/1 17/5/1
f 21/5/1 19/5/1 20/5/1
f 22/5/1 19/5/1 21/5/1
f 23/5/1 19/5/1 22/5/1
f 26/5/1 25/5/1 24/5/1
f 27/5/1 25/5/1 26/5/1
f 32/5/1 29/5/1 28/5/1
f 33/5/1 29/5/1 32/5/1
f 34/5/1 31/5/1 30/5/1
f 35/5/1 31/5/1 34/5/1
f 40/1/1 37/1/1 36/1/1
f 41/1/1 37/1/1 40/1/1
f 42/1/1 39/1/1 38/1/1
f 43/1/1 39/1/1 42/1/1
f 44/5/1 41/5/1 40/5/1
f 45/5/1 41/5/1 44/5/1
f 46/5/1 43/5/1 42/5/1
f 47/5/1 43/5/1 46/5/1
f 52/5/1 49/5/1 48/5/1
f 53/5/1 49/5/1 52/5/1
f 54/5/1 51/5/1 50/5/1
f 55/5/1 51/5/1 54/5/1
f 59/5/1 57/5/1 56/5/1
f 60/5/1 57/5/1 59/5/1
f 61/5/1 57/5/1 60/5/1
f 62/5/1 57/5/1 61/5/1
f 64/5/1 59/5/1 58/5/1
f 64/5/1 60/5/1 59/5/1
f 65/5/1 60/5/1 64/5/1
f 66/5/1 63/5/1 62/5/1
f 66/5/1 62/5/1 61/5/1
f 67/5/1 63/5/1 66/5/1
f 73/5/1 69/5/1 68/5/1
f 74/5/1 71/5/1 70/5/1
f 76/5/1 73/5/1 72/5/1
f 77/5/1 69/5/1 73/5/1
f 77/5/1 73/5/1 76/5/1
f 78/5/1 75/5/1 74/5/1
f 78/5/1 74/5/1 70/5/1
f 79/5/1 75/5/1 78/5/1
f 86/5/1 83/5/1 82/5/1
f 87/5/1 83/5/1 86/5/1
f 88/5/1 81/5/1 80/5/1
f 89/5/1 81/5/1 88/5/1
f 90/5/1 85/5/1 84/5/1
f 91/5/1 85/5/1 90/5/1
f 96/5/1 93/5/1 92/5/1
f 97/5/1 93/5/1 96/5/1
f 98/5/1 95/5/1 94/5/1
f 99/5/1 95/5/1 98/5/1
f 104/1/1 101/1/1 100/1/1
f 105/1/1 101/1/1 104/1/1
f 106/1/1 103/1/1 102/1/1
f 107/1/1 103/1/1 106/1/1
f 108/5/1 105/5/1 104/5/1
f 109/5/1 105/5/1 108/5/1
f 110/5/1 107/5/1 106/5/1
f 111/5/1 107/5/1 110/5/1
f 114/5/1 113/5/1 112/5/1
f 115/5/1 113/5/1 114/5/1
f 118/5/2 119/5/2 122/5/2
f 122/5/2 119/5/2 123/5/2
f 116/5/2 117/5/2 124/5/2
f 120/5/2 121/5/2 125/5/2
f 116/5/2 124/5/2 126/5/2
f 124/5/2 125/5/2 126/5/2
f 125/5/2 121/5/2 127/5/2
f 126/5/2 125/5/2 127/5/2
f 128/5/2 129/5/2 132/5/2
f 130/5/2 131/5/2 133/5/2
f 128/5/2 132/5/2 134/5/2
f 132/5/2 133/5/2 134/5/2
f 133/5/2 131/5/2 135/5/2
f 134/5/2 133/5/2 135/5/2
f 136/5/2 137/5/2 138/5/2
f 138/5/2 137/5/2 139/5/2
f 140/5/2 141/5/2 142/5/2
f 142/5/2 143/5/2 144/5/2
f 140/5/2 142/5/2 145/5/2
f 142/5/2 144/5/2 145/5/2
f 145/5/2 144/5/2 146/5/2
f 146/5/2 144/5/2 147/5/2
f 147/5/2 144/5/2 148/5/2
f 149/1/2 150/1/2 153/1/2
f 153/1/2 150/1/2 154/1/2
f 151/1/2 152/1/2 155/1/2
f 155/1/2 152/1/2 156/1/2
f 153/5/2 154/5/2 157/5/2
f 157/5/2 154/5/2 158/5/2
f 155/5/2 156/5/2 159/5/2
f 159/5/2 156/5/2 160/5/2
f 161/5/2 162/5/2 165/5/2
f 165/5/2 162/5/2 166/5/2
f 163/5/2 164/5/2 167/5/2
f 167/5/2 164/5/2 168/5/2
f 171/5/2 172/5/2 175/5/2
f 175/5/2 172/5/2 176/5/2
f 169/5/2 170/5/2 177/5/2
f 177/5/2 170/5/2 178/5/2
f 173/5/2 174/5/2 179/5/2
f 179/5/2 174/5/2 180/5/2
f 181/5/2 182/5/2 186/5/2
f 183/5/2 184/5/2 187/5/2
f 185/5/2 186/5/2 189/5/2
f 186/5/2 182/5/2 190/5/2
f 189/5/2 186/5/2 190/5/2
f 187/5/2 188/5/2 191/5/2
f 183/5/2 187/5/2 191/5/2
f 191/5/2 188/5/2 192/5/2
f 193/5/2 194/5/2 196/5/2
f 196/5/2 194/5/2 197/5/2
f 197/5/2 194/5/2 198/5/2
f 198/5/2 194/5/2 199/5/2
f 195/5/2 196/5/2 201/5/2
f 196/5/2 197/5/2 201/5/2
f 201/5/2 197/5/2 202/5/2
f 199/5/2 200/5/2 203/5/2
f 198/5/2 199/5/2 203/5/2
f 203/5/2 200/5/2 204/5/2
f 205/5/2 206/5/2 209/5/2
f 209/5/2 206/5/2 210/5/2
f 207/5/2 208/5/2 211/5/2
f 211/5/2 208/5/2 212/5/2
f 213/1/2 214/1/2 217/1/2
f 217/1/2 214/1/2 218/1/2
f 215/1/2 216/1/2 219/1/2
f 219/1/2 216/1/2 220/1/2
f 217/5/2 218/5/2 221/5/2
f 221/5/2 218/5/2 222/5/2
f 219/5/2 220/5/2 223/5/2
f 223/5/2 220/5/2 224/5/2
f 225/5/2 226/5/2 229/5/2
f 229/5/2 226/5/2 230/5/2
f 227/5/2 228/5/2 231/5/2
f 231/5/2 228/5/2 232/5/2
f 233/5/2 234/5/2 235/5/2
f 235/5/2 234/5/2 236/5/2
f 233/5/2 235/5/2 237/5/2
f 237/5/2 235/5/2 238/5/2
f 239/5/2 240/5/2 241/5/2
f 241/5/2 240/5/2 242/5/2
f 243/5/2 244/5/2 245/5/2
f 245/5/2 244/5/2 246/5/2
f 249/5/3 248/5/3 247/5/3
f 250/5/3 248/5/3 249/5/3
f 251/5/3 248/5/3 250/5/3
f 252/5/3 249/5/3 247/5/3
f 253/4/3 251/4/3 250/4/3
f 254/4/3 251/4/3 253/4/3
f 255/5/3 252/5/3 247/5/3
f 255/5/3 253/5/3 252/5/3
f 255/5/3 254/5/3 253/5/3
f 256/5/3 254/5/3 255/5/3
f 259/5/3 258/5/3 257/5/3
f 260/5/3 258/5/3 259/5/3
f 263/5/3 262/5/3 261/5/3
f 264/5/3 262/5/3 263/5/3
f 265/5/3 263/5/3 261/5/3
f 267/5/3 265/5/3 261/5/3
f 267/5/3 266/5/3 265/5/3
f 268/5/3 266/5/3 267/5/3
f 271/5/3 270/5/3 269/5/3
f 272/5/3 270/5/3 271/5/3
f 275/5/3 274/5/3 273/5/3
f 276/5/3 274/5/3 275/5/3
f 279/5/3 278/5/3 277/5/3
f 280/5/3 278/5/3 279/5/3
f 283/5/3 282/5/3 281/5/3
f 284/5/3 282/5/3 283/5/3
f 287/5/3 286/5/3 285/5/3
f 288/5/3 286/5/3 287/5/3
f 291/5/3 290/5/3 289/5/3
f 292/5/3 290/5/3 291/5/3
f 295/5/3 294/5/3 293/5/3
f 296/5/3 294/5/3 295/5/3
f 299/5/3 298/5/3 297/5/3
f 300/5/3 298/5/3 299/5/3
f 304/1/3 302/1/3 301/1/3
f 305/5/3 303/5/3 302/5/3
f 305/1/3 302/1/3 304/1/3
f 306/5/3 303/5/3 305/5/3
f 310/1/3 308/1/3 307/1/3
f 311/5/3 309/5/3 308/5/3
f 311/1/3 308/1/3 310/1/3
f 312/5/3 309/5/3 311/5/3
f 315/5/3 314/5/3 313/5/3
f 316/5/3 314/5/3 315/5/3
f 319/5/3 318/5/3 317/5/3
f 320/5/3 318/5/3 319/5/3
f 324/5/3 322/5/3 321/5/3
f 325/5/3 322/5/3 324/5/3
f 325/5/3 324/5/3 323/5/3
f 326/5/3 322/5/3 325/5/3
f 327/5/3 325/5/3 323/5/3
f 329/5/3 327/5/3 323/5/3
f 329/5/3 328/5/3 327/5/3
f 330/5/3 328/5/3 329/5/3
f 331/5/3 328/5/3 330/5/3
f 332/5/3 328/5/3 331/5/3
f 336/5/3 334/5/3 333/5/3
f 337/5/3 336/5/3 335/5/3
f 338/5/3 334/5/3 336/5/3
f 338/5/3 336/5/3 337/5/3
f 341/5/3 340/5/3 339/5/3
f 342/5/3 340/5/3 341/5/3
f 343/5/3 340/5/3 342/5/3
f 344/5/3 340/5/3 343/5/3
f 347/5/3 346/5/3 345/5/3
f 348/5/3 346/5/3 347/5/3
f 351/5/3 350/5/3 349/5/3
f 352/5/3 350/5/3 351/5/3
f 355/5/3 354/5/3 353/5/3
f 356/5/3 354/5/3 355/5/3
f 359/5/3 358/5/3 357/5/3
f 360/5/3 358/5/3 359/5/3
f 363/5/3 362/5/3 361/5/3
f 364/5/3 362/5/3 363/5/3
f 368/1/3 366/1/3 365/1/3
f 369/5/3 367/5/3 366/5/3
f 369/1/3 366/1/3 368/1/3
f 370/5/3 367/5/3 369/5/3
f 374/1/3 372/1/3 371/1/3
f 375/5/3 373/5/3 372/5/3
f 375/1/3 372/1/3 374/1/3
f 376/5/3 373/5/3 375/5/3
f 379/5/3 378/5/3 377/5/3
f 380/5/3 378/5/3 379/5/3
f 383/5/3 382/5/3 381/5/3
f 384/5/3 382/5/3 383/5/3
f 385/5/4 386/5/4 387/5/4
f 387/5/4 386/5/4 388/5/4
f 389/5/4 390/5/4 391/5/4
f 391/5/4 390/5/4 392/5/4
f 393/1/4 394/1/4 396/1/4
f 394/5/4 395/5/4 397/5/4
f 396/1/4 394/1/4 397/1/4
f 397/5/4 395/5/4 398/5/4
f 399/1/4 400/1/4 402/1/4
f 400/5/4 401/5/4 403/5/4
f 402/1/4 400/1/4 403/1/4
f 403/5/4 401/5/4 404/5/4
f 405/5/4 406/5/4 407/5/4
f 407/5/4 406/5/4 408/5/4
f 409/5/4 410/5/4 411/5/4
f 411/5/4 410/5/4 412/5/4
f 413/5/4 414/5/4 415/5/4
f 415/5/4 414/5/4 416/5/4
f 417/5/4 418/5/4 419/5/4
f 419/5/4 418/5/4 420/5/4
f 421/5/4 422/5/4 423/5/4
f 423/5/4 422/5/4 424/5/4
f 425/5/4 426/5/4 428/5/4
f 427/5/4 428/5/4 429/5/4
f 428/5/4 426/5/4 430/5/4
f 429/5/4 428/5/4 430/5/4
f 431/5/4 432/5/4 433/5/4
f 433/5/4 432/5/4 434/5/4
f 434/5/4 432/5/4 435/5/4
f 435/5/4 432/5/4 436/5/4
f 437/5/4 438/5/4 440/5/4
f 440/5/4 438/5/4 441/5/4
f 439/5/4 440/5/4 441/5/4
f 441/5/4 438/5/4 442/5/4
f 439/5/4 441/5/4 443/5/4
f 439/5/4 443/5/4 445/5/4
f 443/5/4 444/5/4 445/5/4
f 445/5/4 444/5/4 446/5/4
f 446/5/4 444/5/4 447/5/4
f 447/5/4 444/5/4 448/5/4
f 449/5/4 450/5/4 451/5/4
f 451/5/4 450/5/4 452/5/4
f 453/5/4 454/5/4 455/5/4
f 455/5/4 454/5/4 456/5/4
f 457/1/4 458/1/4 460/1/4
f 458/5/4 459/5/4 461/5/4
f 460/1/4 458/1/4 461/1/4
f 461/5/4 459/5/4 462/5/4
f 463/1/4 464/1/4 466/1/4
f 464/5/4 465/5/4 467/5/4
f 466/1/4 464/1/4 467/1/4
f 467/5/4 465/5/4 468/5/4
f 469/5/4 470/5/4 471/5/4
f 471/5/4 470/5/4 472/5/4
f 473/5/4 474/5/4 475/5/4
f 475/5/4 474/5/4 476/5/4
f 477/5/4 478/5/4 479/5/4
f 479/5/4 478/5/4 480/5/4
f 481/5/4 482/5/4 483/5/4
f 483/5/4 482/5/4 484/5/4
f 485/5/4 486/5/4 487/5/4
f 487/5/4 486/5/4 488/5/4
f 489/5/4 490/5/4 491/5/4
f 491/5/4 490/5/4 492/5/4
f 493/5/4 494/5/4 495/5/4
f 495/5/4 494/5/4 496/5/4
f 493/5/4 495/5/4 497/5/4
f 495/3/4 496/3/4 497/3/4
f 497/3/4 496/3/4 498/3/4
f 493/5/4 497/5/4 499/5/4
f 497/5/4 498/5/4 499/5/4
f 499/5/4 498/5/4 500/5/4
f 503/5/5 502/5/5 501/5/5
f 504/5/5 502/5/5 503/5/5
f 505/5/5 503/5/5 501/5/5
f 505/4/5 504/4/5 503/4/5
f 506/5/5 502/5/5 504/5/5
f 506/4/5 504/4/5 505/4/5
f 507/5/5 505/5/5 501/5/5
f 507/5/5 506/5/5 505/5/5
f 508/5/5 502/5/5 506/5/5
f 508/5/5 506/5/5 507/5/5
f 511/5/5 510/5/5 509/5/5
f 512/5/5 510/5/5 511/5/5
f 515/4/5 514/4/5 513/4/5
f 516/4/5 514/4/5 515/4/5
f 517/5/6 518/5/6 519/5/6
f 519/5/6 518/5/6 520/5/6
f 517/5/6 519/5/6 521/5/6
f 521/5/6 519/5/6 522/5/6
f 520/5/6 518/5/6 523/5/6
f 523/5/6 518/5/6 524/5/6
f 517/5/6 521/5/6 525/5/6
f 525/5/6 521/5/6 526/5/6
f 526/5/6 521/5/6 528/5/6
f 527/5/6 528/5/6 529/5/6
f 528/5/6 521/5/6 530/5/6
f 529/5/6 528/5/6 530/5/6
f 530/5/6 521/5/6 532/5/6
f 532/5/6 521/5/6 533/5/6
f 531/5/6 532/5/6 533/5/6
f 524/5/6 518/5/6 534/5/6
f 531/5/6 533/5/6 535/5/6
f 533/5/6 534/5/6 535/5/6
f 534/5/6 518/5/6 536/5/6
f 535/5/6 534/5/6 536/5/6
f 537/5/6 538/5/6 541/5/6
f 541/5/6 538/5/6 542/5/6
f 539/5/6 540/5/6 543/5/6
f 543/5/6 540/5/6 544/5/6
f 537/5/6 541/5/6 545/5/6
f 544/5/6 540/5/6 546/5/6
f 537/5/6 545/5/6 547/5/6
f 545/5/6 546/5/6 547/5/6
f 546/5/6 540/5/6 548/5/6
f 547/5/6 546/5/6 548/5/6
f 549/1/6 550/1/6 553/1/6
f 553/1/6 550/1/6 554/1/6
f 551/1/6 552/1/6 555/1/6
f 555/1/6 552/1/6 556/1/6
f 557/5/6 558/5/6 560/5/6
f 560/5/6 558/5/6 561/5/6
f 559/5/6 560/5/6 563/5/6
f 561/5/6 562/5/6 563/5/6
f 560/5/6 561/5/6 563/5/6
f 563/5/6 562/5/6 564/5/6
f 564/5/6 562/5/6 565/5/6
f 565/5/6 562/5/6 566/5/6
f 564/5/6 565/5/6 567/5/6
f 567/5/6 565/5/6 568/5/6
f 569/1/6 570/1/6 573/1/6
f 573/1/6 570/1/6 574/1/6
f 571/1/6 572/1/6 575/1/6
f 575/1/6 572/1/6 576/1/6
f 577/5/6 578/5/6 579/5/6
f 579/5/6 578/5/6 580/5/6
f 581/5/6 582/5/6 585/5/6
f 583/5/6 584/5/6 585/5/6
f 582/5/6 583/5/6 585/5/6
f 585/5/6 584/5/6 586/5/6
f 586/5/6 584/5/6 587/5/6
f 587/5/6 584/5/6 588/5/6
f 581/5/6 585/5/6 589/5/6
f 586/5/6 587/5/6 590/5/6
f 590/5/6 587/5/6 591/5/6
f 591/5/6 587/5/6 592/5/6
f 592/5/6 587/5/6 593/5/6
f 588/5/6 584/5/6 594/5/6
f 591/5/6 592/5/6 595/5/6
f 595/5/6 592/5/6 596/5/6
f 589/5/6 590/5/6 597/5/6
f 593/5/6 594/5/6 600/5/6
f 589/5/6 597/5/6 601/5/6
f 597/5/6 598/5/6 601/5/6
f 601/5/6 598/5/6 602/5/6
f 599/5/6 600/5/6 603/5/6
f 600/5/6 594/5/6 604/5/6
f 603/5/6 600/5/6 604/5/6
f 581/5/6 589/5/6 607/5/6
f 589/5/6 601/5/6 607/5/6
f 607/5/6 601/5/6 608/5/6
f 605/5/6 606/5/6 609/5/6
f 609/5/6 606/5/6 610/5/6
f 604/5/6 594/5/6 611/5/6
f 594/5/6 584/5/6 612/5/6
f 611/5/6 594/5/6 612/5/6
f 581/5/6 607/5/6 613/5/6
f 609/5/6 610/5/6 614/5/6
f 610/5/6 611/5/6 614/5/6
f 608/5/6 609/5/6 614/5/6
f 614/5/6 611/5/6 615/5/6
f 612/5/6 584/5/6 616/5/6
f 581/5/6 613/5/6 617/5/6
f 615/5/6 616/5/6 617/5/6
f 614/5/6 615/5/6 617/5/6
f 613/5/6 614/5/6 617/5/6
f 616/5/6 584/5/6 618/5/6
f 617/5/6 616/5/6 618/5/6
f 619/5/6 620/5/6 623/5/6
f 623/5/6 620/5/6 624/5/6
f 621/5/6 622/5/6 625/5/6
f 625/5/6 622/5/6 626/5/6
f 619/5/6 623/5/6 627/5/6
f 624/5/6 620/5/6 628/5/6
f 621/5/6 625/5/6 629/5/6
f 626/5/6 622/5/6 630/5/6
f 619/5/6 627/5/6 631/5/6
f 627/5/6 628/5/6 631/5/6
f 628/5/6 620/5/6 632/5/6
f 631/5/6 628/5/6 632/5/6
f 629/5/6 630/5/6 635/5/6
f 621/5/6 629/5/6 635/5/6
f 630/5/6 622/5/6 636/5/6
f 635/5/6 630/5/6 636/5/6
f 632/5/6 633/5/6 637/5/6
f 637/5/6 633/5/6 638/5/6
f 634/5/6 635/5/6 641/5/6
f 641/5/6 635/5/6 642/5/6
f 632/5/6 637/5/6 643/5/6
f 643/5/6 637/5/6 644/5/6
f 639/5/6 640/5/6 645/5/6
f 645/5/6 640/5/6 646/5/6
f 642/5/6 635/5/6 647/5/6
f 647/5/6 635/5/6 648/5/6
f 649/5/6 650/5/6 653/5/6
f 653/5/6 650/5/6 654/5/6
f 651/5/6 652/5/6 655/5/6
f 655/5/6 652/5/6 656/5/6
f 657/5/6 658/5/6 663/5/6
f 659/5/6 660/5/6 665/5/6
f 665/5/6 660/5/6 666/5/6
f 661/5/6 662/5/6 668/5/6
f 663/5/6 664/5/6 670/5/6
f 657/5/6 663/5/6 670/5/6
f 670/5/6 664/5/6 671/5/6
f 667/5/6 668/5/6 672/5/6
f 668/5/6 662/5/6 673/5/6
f 672/5/6 668/5/6 673/5/6
f 669/5/6 670/5/6 675/5/6
f 675/5/6 670/5/6 676/5/6
f 673/5/6 674/5/6 677/5/6
f 677/5/6 674/5/6 678/5/6
f 669/5/6 675/5/6 679/5/6
f 676/5/6 670/5/6 680/5/6
f 673/5/6 677/5/6 681/5/6
f 678/5/6 674/5/6 682/5/6
f 669/5/6 679/5/6 683/5/6
f 679/5/6 680/5/6 683/5/6
f 680/5/6 670/5/6 684/5/6
f 683/5/6 680/5/6 684/5/6
f 681/5/6 682/5/6 685/5/6
f 673/5/6 681/5/6 685/5/6
f 682/5/6 674/5/6 686/5/6
f 685/5/6 682/5/6 686/5/6
f 687/5/6 688/5/6 691/5/6
f 691/5/6 688/5/6 692/5/6
f 689/5/6 690/5/6 693/5/6
f 693/5/6 690/5/6 694/5/6
f 695/5/6 696/5/6 699/5/6
f 699/5/6 696/5/6 700/5/6
f 697/5/6 698/5/6 701/5/6
f 701/5/6 698/5/6 702/5/6
f 703/5/6 704/5/6 705/5/6
f 705/5/6 704/5/6 706/5/6
f 707/5/6 708/5/6 709/5/6
f 709/5/6 708/5/6 710/5/6
f 711/5/6 712/5/6 715/5/6
f 713/5/6 714/5/6 716/5/6
f 711/5/6 715/5/6 717/5/6
f 715/5/6 716/5/6 717/5/6
f 716/5/6 714/5/6 718/5/6
f 717/5/6 716/5/6 718/5/6
f 719/5/6 720/5/6 721/5/6
f 721/5/6 720/5/6 722/5/6
f 723/5/6 724/5/6 727/5/6
f 724/4/6 725/4/6 727/4/6
f 725/5/6 726/5/6 728/5/6
f 727/4/6 725/4/6 728/4/6
f 723/5/6 727/5/6 729/5/6
f 727/3/6 728/3/6 730/3/6
f 729/5/6 727/5/6 730/5/6
f 728/5/6 726/5/6 731/5/6
f 730/3/6 728/3/6 731/3/6
f 731/5/6 726/5/6 732/5/6
